<?xml version="1.0" encoding="UTF-8"?>
<svg xmlns="http://www.w3.org/2000/svg" xmlns:xlink="http://www.w3.org/1999/xlink" width="88px" height="100px" viewBox="0 0 88 99" version="1.1">
<g id="surface1">
<path style=" stroke:none;fill-rule:nonzero;fill:rgb(0%,0%,0%);fill-opacity:1;" d="M 38.152344 0.152344 C 36.1875 0.523438 33.765625 1.585938 31.878906 2.910156 C 30.65625 3.769531 28.214844 6.171875 27.144531 7.566406 C 24.28125 11.324219 21.917969 16.40625 20.277344 22.386719 L 19.78125 24.195312 L 14.820312 25.730469 C 9.339844 27.417969 8.445312 27.78125 8.117188 28.40625 C 8.015625 28.609375 7.863281 29.132812 7.78125 29.570312 C 7.589844 30.648438 0.0625 88.382812 0.113281 88.433594 C 0.132812 88.453125 12.976562 90.835938 28.652344 93.738281 L 57.148438 99 L 72.5 95.707031 C 80.941406 93.898438 87.867188 92.394531 87.886719 92.375 C 87.949219 92.324219 77.113281 19.617188 76.980469 19.214844 C 76.929688 19.03125 76.777344 18.820312 76.652344 18.738281 C 76.492188 18.628906 75.320312 18.507812 72.316406 18.273438 L 68.199219 17.960938 L 65.246094 15.082031 C 63.617188 13.496094 62.148438 12.113281 61.976562 12.011719 C 61.417969 11.667969 60.347656 11.75 58.644531 12.265625 C 57.839844 12.515625 57.109375 12.730469 57.007812 12.75 C 56.863281 12.769531 56.730469 12.527344 56.3125 11.515625 C 54.359375 6.699219 51.742188 3.980469 48.277344 3.183594 C 47.910156 3.101562 47.238281 3.03125 46.769531 3.03125 L 45.933594 3.03125 L 45.089844 2.191406 C 43.613281 0.726562 42.195312 0.109375 40.128906 0.0390625 C 39.355469 0.0195312 38.683594 0.0625 38.152344 0.152344 Z M 41.433594 3.726562 C 41.71875 3.859375 41.964844 3.992188 41.964844 4.03125 C 41.964844 4.0625 41.625 4.261719 41.210938 4.476562 C 39.039062 5.578125 36.890625 7.6875 35.300781 10.273438 C 33.84375 12.648438 32.683594 15.667969 31.871094 19.183594 C 31.695312 19.941406 31.554688 20.566406 31.542969 20.578125 C 31.453125 20.660156 23.8125 22.941406 23.761719 22.902344 C 23.679688 22.808594 24.394531 20.539062 25.117188 18.597656 C 28.316406 10.121094 32.714844 5.113281 38.246094 3.625 C 39.242188 3.363281 40.679688 3.40625 41.433594 3.726562 Z M 48.613281 6.65625 C 50.070312 7.152344 51.414062 8.617188 52.503906 10.859375 C 52.941406 11.757812 53.714844 13.738281 53.65625 13.789062 C 53.5625 13.859375 48.941406 15.234375 48.898438 15.203125 C 48.878906 15.171875 48.816406 14.425781 48.777344 13.527344 C 48.65625 11.09375 48.195312 8.214844 47.71875 6.871094 C 47.574219 6.476562 47.574219 6.464844 47.808594 6.464844 C 47.941406 6.464844 48.296875 6.554688 48.613281 6.65625 Z M 44.550781 8.191406 C 45.050781 9.898438 45.425781 12.980469 45.425781 15.304688 L 45.425781 16.324219 L 40.535156 17.832031 C 37.847656 18.648438 35.628906 19.304688 35.605469 19.285156 C 35.585938 19.265625 35.730469 18.71875 35.921875 18.082031 C 37.554688 12.730469 40.078125 9.164062 43.449219 7.414062 C 44.246094 7 44.183594 6.960938 44.550781 8.191406 Z M 41.769531 34.195312 C 42.371094 34.265625 43.234375 34.429688 43.703125 34.539062 C 44.640625 34.75 46.3125 35.328125 46.394531 35.457031 C 46.433594 35.519531 45.414062 38.601562 43.113281 45.328125 L 42.664062 46.652344 L 42.035156 46.367188 C 39.160156 45.085938 35.191406 44.570312 32.746094 45.15625 C 32.054688 45.328125 30.882812 45.894531 30.484375 46.265625 C 29.445312 47.21875 28.976562 48.347656 29.046875 49.730469 C 29.109375 50.914062 29.433594 51.53125 30.605469 52.691406 C 31.300781 53.378906 32.011719 53.933594 33.507812 54.925781 C 34.597656 55.652344 35.933594 56.613281 36.464844 57.054688 C 38.417969 58.683594 39.90625 60.449219 40.882812 62.328125 C 41.984375 64.441406 42.402344 66.1875 42.390625 68.644531 C 42.390625 74.230469 40.222656 78.976562 36.484375 81.625 C 34.957031 82.707031 33.285156 83.414062 31.167969 83.855469 C 29.617188 84.191406 26.492188 84.191406 24.636719 83.867188 C 21.570312 83.320312 18.78125 82.230469 16.355469 80.632812 C 15.257812 79.90625 13.546875 78.371094 13.546875 78.109375 C 13.546875 77.917969 16 69.785156 16.082031 69.683594 C 16.113281 69.644531 16.53125 69.90625 17 70.269531 C 20.066406 72.613281 23.882812 74.140625 26.074219 73.917969 C 27.53125 73.765625 28.742188 72.90625 29.230469 71.675781 C 29.566406 70.835938 29.578125 69.136719 29.242188 68.238281 C 28.773438 66.957031 27.5 65.5 25.515625 63.996094 C 22.488281 61.703125 20.929688 59.964844 19.800781 57.632812 C 18.617188 55.207031 18.28125 52.832031 18.691406 49.773438 C 19.617188 42.75 24.097656 37.449219 31.015625 35.207031 C 32.703125 34.648438 34.007812 34.378906 36.308594 34.113281 C 37.175781 34.003906 40.792969 34.0625 41.769531 34.195312 Z M 41.769531 34.195312 "/>
</g>
</svg>
