<?xml version="1.0" standalone="no"?>
<!DOCTYPE svg PUBLIC "-//W3C//DTD SVG 20010904//EN"
 "http://www.w3.org/TR/2001/REC-SVG-20010904/DTD/svg10.dtd">
<svg version="1.0" xmlns="http://www.w3.org/2000/svg"
 width="864.000000pt" height="980.000000pt" viewBox="0 0 864.000000 980.000000"
 preserveAspectRatio="xMidYMid meet">
<metadata>
Created by potrace 1.16, written by Peter Selinger 2001-2019
</metadata>
<g transform="translate(0.000000,980.000000) scale(0.100000,-0.100000)"
fill="#000000" stroke="none">
<path d="M3746 9785 c-193 -37 -431 -142 -616 -273 -120 -85 -360 -323 -465
-461 -281 -372 -513 -875 -674 -1467 l-49 -179 -487 -152 c-538 -167 -626
-203 -658 -265 -10 -20 -25 -72 -33 -115 -19 -107 -758 -5822 -753 -5827 2 -2
1263 -238 2802 -525 l2798 -521 1507 326 c829 179 1509 328 1511 330 6 5
-1058 7202 -1071 7242 -5 18 -20 39 -32 47 -16 11 -131 23 -426 46 l-404 31
-290 285 c-160 157 -304 294 -321 304 -55 34 -160 26 -327 -25 -79 -25 -151
-46 -161 -48 -14 -2 -27 22 -68 122 -192 477 -449 746 -789 825 -36 8 -102 15
-148 15 l-82 0 -83 83 c-145 145 -284 206 -487 213 -76 2 -142 -2 -194 -11z
m322 -354 c28 -13 52 -26 52 -30 0 -3 -33 -23 -74 -44 -213 -109 -424 -318
-580 -574 -143 -235 -257 -534 -337 -882 -17 -75 -31 -137 -32 -138 -9 -8
-759 -234 -764 -230 -8 9 62 234 133 426 314 839 746 1335 1289 1482 98 26
239 22 313 -10z m705 -290 c143 -49 275 -194 382 -416 43 -89 119 -285 113
-290 -9 -7 -463 -143 -467 -140 -2 3 -8 77 -12 166 -12 241 -57 526 -104 659
-14 39 -14 40 9 40 13 0 48 -9 79 -19z m-399 -152 c49 -169 86 -474 86 -704
l0 -101 -480 -149 c-264 -81 -482 -146 -484 -144 -2 2 12 56 31 119 160 530
408 883 739 1056 78 41 72 45 108 -77z m-273 -2574 c59 -7 144 -23 190 -34 92
-21 256 -78 264 -91 4 -6 -96 -311 -322 -977 l-44 -131 -62 28 c-282 127 -672
178 -912 120 -68 -17 -183 -73 -222 -110 -102 -94 -148 -206 -141 -343 6 -117
38 -178 153 -293 68 -68 138 -123 285 -221 107 -72 238 -167 290 -211 192
-161 338 -336 434 -522 108 -209 149 -382 148 -625 0 -553 -213 -1023 -580
-1285 -150 -107 -314 -177 -522 -221 -152 -33 -459 -33 -641 -1 -301 54 -575
162 -813 320 -108 72 -276 224 -276 250 0 19 241 824 249 834 3 4 44 -22 90
-58 301 -232 676 -383 891 -361 143 15 262 100 310 222 33 83 34 251 1 340
-46 127 -171 271 -366 420 -297 227 -450 399 -561 630 -116 240 -149 475 -109
778 91 695 531 1220 1210 1442 166 55 294 82 520 108 85 11 440 5 536 -8z"/>
</g>
</svg>
