<?xml version="1.0" standalone="no"?>
<!DOCTYPE svg PUBLIC "-//W3C//DTD SVG 20010904//EN"
 "http://www.w3.org/TR/2001/REC-SVG-20010904/DTD/svg10.dtd">
<svg version="1.0" xmlns="http://www.w3.org/2000/svg"
 width="304.000000pt" height="338.000000pt" viewBox="0 0 304.000000 338.000000"
 preserveAspectRatio="xMidYMid meet">

<g transform="translate(0.000000,338.000000) scale(0.100000,-0.100000)"
fill="#000000" stroke="none">
<path d="M0 1690 l0 -1690 1520 0 1520 0 0 1690 0 1690 -1520 0 -1520 0 0
-1690z m1894 1456 c44 -18 76 -72 76 -127 l1 -44 106 -60 c59 -33 115 -68 125
-77 16 -16 18 -39 18 -221 0 -148 -3 -207 -12 -219 -7 -8 -93 -61 -191 -116
l-179 -102 -31 17 c-18 8 -96 53 -175 99 -79 46 -145 84 -148 84 -4 0 -133
-74 -297 -169 l-27 -16 2 -199 3 -199 153 -88 c84 -49 158 -89 164 -89 6 0 59
28 119 62 l108 61 -5 46 c-9 80 47 142 130 143 52 1 88 -19 116 -65 70 -114
-60 -244 -181 -181 -30 15 -31 14 -152 -55 -68 -39 -128 -71 -135 -71 -14 0
-337 184 -364 208 -16 13 -18 37 -18 221 l0 206 -173 100 -172 101 -3 219 -2
220 185 108 c102 59 189 107 194 107 10 0 310 -171 354 -202 l27 -19 0 -202 0
-202 164 -93 164 -93 161 93 161 93 0 191 0 191 -107 62 -107 62 -42 -20 c-49
-25 -82 -26 -126 -5 -51 24 -73 61 -73 119 0 101 93 161 189 121z m-1424
-2036 c0 -17 -5 -30 -12 -31 -7 0 -60 -1 -118 -2 l-105 -2 0 -55 0 -55 88 -3
87 -3 0 -29 0 -30 -90 0 -91 0 3 -57 3 -58 118 -3 117 -3 0 -29 0 -30 -150 0
-150 0 0 203 c0 112 3 207 7 210 3 4 71 7 150 7 l143 0 0 -30z m770 -30 l0
-60 120 0 120 0 0 -150 0 -150 -150 0 -150 0 0 210 0 210 30 0 30 0 0 -60z
m-452 -103 l42 -43 0 -107 0 -107 -32 0 -33 0 3 93 c3 82 1 96 -18 120 -12 15
-26 27 -31 27 -5 0 -9 -53 -9 -120 l0 -120 -30 0 -30 0 0 120 0 120 -30 0 -30
0 0 -120 0 -120 -30 0 -30 0 0 150 0 150 108 0 108 0 42 -43z m812 6 l0 -37
38 37 c34 33 43 37 90 37 51 0 52 -1 52 -30 0 -28 -3 -30 -37 -30 -32 0 -46
-8 -90 -52 l-53 -52 0 -68 0 -68 -30 0 -30 0 0 150 0 150 30 0 c28 0 30 -3 30
-37z m538 -55 l3 -88 -121 0 -120 0 0 -30 0 -30 120 0 120 0 0 -30 0 -30 -150
0 -150 0 0 150 0 151 148 -3 147 -3 3 -87z m112 24 c0 -67 0 -68 45 -112 l45
-44 45 44 c45 44 45 45 45 112 l0 68 30 0 30 0 0 -82 0 -82 -67 -68 c-37 -38
-74 -68 -82 -68 -9 0 -46 30 -83 67 l-68 67 0 83 0 83 30 0 30 0 0 -68z m600
-22 l0 -90 -120 0 -120 0 0 -30 0 -30 120 0 120 0 0 -30 0 -30 -150 0 -150 0
0 150 0 150 150 0 150 0 0 -90z m-1370 -610 l244 0 41 40 41 41 47 -43 c26
-23 47 -47 47 -53 0 -14 -82 -95 -96 -95 -6 0 -25 16 -44 35 l-34 35 -246 0
-246 0 -34 -35 c-19 -19 -38 -35 -44 -35 -14 0 -96 81 -96 95 0 6 21 30 47 53
l47 43 41 -41 41 -40 244 0z"/>
<path d="M1803 3100 c-30 -12 -55 -63 -47 -95 8 -32 49 -65 81 -65 33 0 83 51
83 85 0 31 -49 85 -77 84 -10 0 -28 -4 -40 -9z"/>
<path d="M957 2897 l-157 -92 2 -190 3 -189 162 -94 162 -93 163 93 163 94 3
190 2 189 -62 35 c-35 19 -107 60 -161 92 -54 32 -104 58 -110 57 -7 0 -83
-42 -170 -92z"/>
<path d="M1787 1868 c-21 -17 -38 -63 -30 -85 26 -74 115 -86 149 -21 19 37
10 82 -19 103 -26 18 -77 20 -100 3z"/>
<path d="M1240 870 l0 -90 90 0 90 0 0 90 0 90 -90 0 -90 0 0 -90z"/>
<path d="M1900 930 l0 -30 85 0 85 0 0 30 0 30 -85 0 -85 0 0 -30z"/>
<path d="M2610 930 l0 -31 88 3 c85 3 87 3 87 28 0 25 -2 25 -87 28 l-88 3 0
-31z"/>
<path d="M1130 325 l-24 -25 22 -22 c21 -21 22 -21 42 -3 25 22 25 37 2 58
-17 16 -20 15 -42 -8z"/>
<path d="M1787 332 c-22 -24 -21 -35 3 -57 20 -18 21 -18 43 3 l21 22 -25 25
c-24 25 -26 25 -42 7z"/>
</g>
</svg>
