<?xml version="1.0" standalone="no"?>
<!DOCTYPE svg PUBLIC "-//W3C//DTD SVG 20010904//EN"
 "http://www.w3.org/TR/2001/REC-SVG-20010904/DTD/svg10.dtd">
<svg version="1.0" xmlns="http://www.w3.org/2000/svg"
 width="398.000000pt" height="398.000000pt" viewBox="0 0 398.000000 398.000000"
 preserveAspectRatio="xMidYMid meet">

<g transform="translate(0.000000,398.000000) scale(0.100000,-0.100000)"
fill="#000000" stroke="none">
<path d="M1447 3424 c-4 -4 -7 -37 -7 -73 l-1 -66 -30 58 c-21 41 -35 57 -49
57 -33 0 -35 -29 -6 -87 l27 -55 -39 31 c-44 34 -69 39 -79 15 -4 -10 8 -30
33 -55 37 -39 38 -40 11 -30 -84 32 -93 -12 -13 -58 35 -20 58 -42 66 -61 7
-17 15 -30 19 -30 3 -1 18 -11 34 -23 23 -19 30 -37 42 -107 8 -47 15 -106 15
-131 0 -54 20 -117 51 -160 15 -22 22 -48 24 -95 3 -60 8 -73 61 -157 32 -51
79 -120 105 -154 l48 -62 -19 -57 c-11 -31 -26 -95 -34 -143 -21 -125 -40
-477 -32 -611 3 -63 2 -195 -4 -293 -8 -153 -7 -203 9 -355 29 -271 20 -331
-56 -351 -54 -15 -83 -38 -83 -66 0 -13 -4 -27 -10 -30 -5 -3 -10 -17 -10 -30
0 -19 9 -26 51 -40 66 -22 177 -25 213 -5 25 13 29 13 37 -3 23 -41 192 -61
264 -31 20 8 42 13 48 11 7 -2 33 6 60 20 54 27 58 43 29 130 -16 47 -17 99
-16 492 2 438 7 503 38 523 7 4 12 49 14 110 3 138 13 167 88 243 l62 65 18
-68 c14 -53 26 -74 57 -103 l39 -36 -11 -54 c-9 -43 -8 -71 3 -134 8 -44 17
-110 21 -147 l6 -67 -33 -16 c-38 -20 -148 -130 -148 -150 0 -28 67 -25 85 4
3 6 13 11 21 11 18 0 19 -72 3 -154 -7 -31 -10 -58 -8 -60 2 -2 20 -7 39 -11
29 -5 43 -1 83 26 51 34 70 62 94 142 17 58 11 135 -13 173 -14 21 -13 36 11
171 31 166 33 219 10 262 -21 41 -20 100 2 117 17 12 14 24 -41 187 -32 95
-66 183 -75 194 -9 11 -56 50 -104 88 l-88 69 26 13 c14 8 29 11 34 9 13 -9
58 31 102 90 25 34 47 54 59 54 11 0 20 5 20 11 0 5 4 8 9 5 5 -4 7 4 5 16 -2
13 -2 18 2 11 4 -8 10 -7 23 5 10 9 33 30 50 46 66 60 91 155 46 180 -11 6
-21 12 -23 12 -1 1 15 35 37 75 52 97 69 177 52 250 -7 30 -12 78 -11 107 1
62 -6 92 -24 92 -7 0 -20 16 -29 36 -10 19 -21 33 -26 30 -5 -3 -11 1 -15 9
-3 8 -30 30 -59 49 -30 19 -57 43 -61 52 -5 13 -10 14 -18 6 -8 -8 -20 -3 -47
19 l-36 30 -3 -24 c-3 -22 -6 -22 -71 -19 l-68 4 -39 -42 c-22 -23 -52 -49
-69 -57 -85 -44 -157 -138 -195 -256 -9 -28 -15 -36 -23 -28 -33 33 -96 -14
-117 -87 -11 -41 -12 -123 -1 -162 6 -22 8 -23 14 -7 4 10 4 36 1 57 -13 83
45 210 81 180 21 -18 18 -32 -5 -25 -15 5 -18 3 -14 -9 3 -8 -3 -27 -12 -43
l-18 -28 22 19 c17 15 22 16 22 5 0 -8 -4 -19 -9 -24 -4 -6 -17 -32 -27 -60
-22 -60 -49 -107 -56 -99 -3 3 -9 -35 -13 -85 -7 -86 -1 -145 15 -166 13 -17
22 -75 12 -75 -5 0 -43 59 -83 130 -65 115 -77 130 -100 130 -38 0 -59 29 -59
81 0 42 -51 174 -119 307 l-22 42 25 43 c13 23 28 59 31 79 4 20 16 44 26 54
10 9 19 25 19 34 0 39 -55 29 -83 -14 -10 -14 -22 -26 -27 -26 -9 0 -28 81
-32 145 -2 32 -7 41 -23 43 -12 2 -24 0 -28 -4z m37 -71 c4 -32 12 -75 18 -95
9 -32 8 -41 -5 -55 -20 -23 -35 -79 -18 -69 6 4 11 15 11 24 0 9 27 44 60 76
61 61 89 70 51 18 -12 -17 -21 -39 -21 -50 0 -10 -14 -46 -31 -79 l-31 -59 72
-155 c67 -144 72 -157 67 -206 -4 -41 -2 -53 8 -53 32 0 23 -21 -17 -41 -24
-12 -50 -28 -60 -36 -14 -13 -17 -10 -23 26 -4 22 -15 51 -26 65 -30 38 -41
75 -49 176 -13 154 -26 195 -65 219 -19 11 -45 38 -59 60 -15 23 -43 49 -65
61 -42 21 -70 50 -35 36 74 -30 104 -39 111 -33 4 4 -17 31 -45 60 -29 29 -52
56 -52 61 0 8 56 -31 94 -66 36 -33 39 -3 7 60 -33 64 -37 82 -22 82 6 0 24
-27 42 -60 44 -83 59 -79 59 15 0 89 14 99 24 18z m686 -188 c-17 -21 3 -20
35 1 36 24 86 11 180 -46 83 -50 180 -93 237 -105 40 -8 124 -60 132 -81 10
-27 7 -62 -10 -104 -9 -23 -14 -43 -11 -46 3 -3 13 17 22 45 20 61 31 71 30
28 -2 -39 -33 -111 -75 -172 -36 -52 -50 -57 -50 -17 0 38 -32 98 -50 94 -8
-2 -12 0 -8 4 13 12 -12 33 -53 44 -45 12 -109 -2 -134 -30 -14 -16 -18 -16
-50 -2 -30 14 -35 21 -35 52 0 19 -9 49 -20 67 -49 81 -146 94 -232 31 -26
-19 -29 -6 -12 53 24 81 90 199 111 199 3 0 0 -7 -7 -15z m33 -212 c-7 -2 -21
-2 -30 0 -10 3 -4 5 12 5 17 0 24 -2 18 -5z m-63 -13 c-8 -5 -19 -10 -25 -10
-5 0 -3 5 5 10 8 5 20 10 25 10 6 0 3 -5 -5 -10z m132 -21 l33 -31 -33 26
c-49 39 -55 32 -11 -13 34 -33 39 -44 38 -82 l0 -44 -19 41 c-29 65 -64 87
-132 82 -45 -3 -55 -2 -47 8 11 13 55 30 99 37 14 2 28 5 32 6 4 0 22 -13 40
-30z m-227 -98 c0 -60 3 -73 25 -96 69 -74 172 -72 232 5 22 28 28 31 47 21
24 -13 25 -21 10 -75 -6 -21 -7 -42 -2 -45 4 -3 15 -19 23 -36 38 -74 141 -98
212 -50 20 14 40 34 43 46 5 14 10 18 17 11 7 -7 -1 -32 -27 -79 -41 -76 -78
-120 -109 -129 -12 -4 -29 -13 -38 -22 -10 -8 -18 -12 -18 -7 0 4 -7 2 -15 -5
-13 -11 -15 -5 -15 42 0 48 -3 55 -27 70 -16 9 -57 24 -92 33 -35 9 -81 28
-103 43 -122 82 -135 85 -175 46 -25 -25 -27 -26 -40 -8 -21 29 -35 93 -28
127 9 42 65 177 73 177 4 0 7 -31 7 -69z m121 -10 c41 -19 82 -40 90 -46 34
-25 -17 -65 -82 -65 -53 0 -104 53 -104 108 0 22 3 49 7 59 7 17 8 17 11 -2 2
-14 26 -30 78 -54z m-1 49 c-20 -22 -40 -26 -50 -10 -11 17 5 30 37 30 30 0
31 0 13 -20z m155 -39 c0 -45 -6 -37 -13 18 -4 29 -2 40 4 30 5 -7 9 -29 9
-48z m-108 34 c0 -5 -5 -11 -11 -13 -6 -2 -11 4 -11 13 0 9 5 15 11 13 6 -2
11 -8 11 -13z m58 -72 c0 -10 -5 -11 -19 -3 -13 7 -17 16 -14 31 6 21 7 21 20
4 7 -11 13 -25 13 -32z m306 2 c10 -8 15 -15 10 -15 -5 0 -3 -7 4 -15 7 -8 16
-13 20 -10 5 3 12 0 16 -6 5 -8 3 -9 -6 -4 -10 6 -12 4 -7 -9 4 -10 7 -21 7
-24 0 -4 4 -2 8 5 4 7 7 -8 7 -32 0 -33 -3 -41 -12 -33 -7 6 -13 16 -13 23 0
26 -43 65 -82 76 -33 8 -49 8 -80 -4 -21 -9 -38 -11 -38 -6 0 6 -6 7 -12 3 -8
-4 -10 -3 -5 2 5 5 12 9 15 9 15 0 32 17 27 26 -3 5 2 6 11 2 11 -4 15 -3 11
4 -4 7 0 9 11 7 9 -3 28 -1 42 5 35 14 43 13 66 -4z m-210 -21 c18 -14 18 -14
-6 -3 -31 14 -36 19 -24 19 6 0 19 -7 30 -16z m107 -54 c-3 -11 -14 -20 -24
-20 -30 0 -31 18 -2 28 16 6 29 11 30 11 0 1 -1 -8 -4 -19z m51 -1 c-8 -14
-24 -10 -24 6 0 9 6 12 15 9 8 -4 12 -10 9 -15z m69 -50 c3 -13 0 -22 -9 -26
-23 -9 -36 11 -28 41 5 20 9 24 19 16 7 -6 15 -20 18 -31z m-126 11 c26 -11
65 -30 86 -41 30 -17 41 -18 52 -9 30 25 15 -10 -16 -40 -26 -24 -40 -30 -78
-30 -27 0 -56 7 -70 16 -40 28 -69 124 -37 124 8 0 36 -9 63 -20z m291 -62 c8
-39 -68 -151 -108 -160 -21 -4 -40 -24 -40 -42 0 -8 -5 -18 -11 -22 -17 -10
-2 33 30 86 15 25 32 57 39 73 6 15 16 27 22 27 7 0 18 7 26 15 9 8 11 15 5
15 -6 0 -11 7 -11 16 0 22 44 14 48 -8z m-1001 -8 c35 -56 113 -195 113 -202
0 -4 -7 -8 -15 -8 -8 0 -15 -4 -15 -10 0 -5 23 -12 51 -16 28 -4 55 -12 60
-18 99 -124 110 -135 163 -155 82 -31 143 -36 199 -16 40 13 51 14 65 3 9 -7
54 -44 99 -82 l82 -68 51 -147 c69 -195 69 -199 1 -233 -33 -17 -71 -28 -95
-28 l-41 0 -32 108 c-18 59 -38 130 -44 159 -5 28 -17 54 -25 57 -15 6 -15 4
12 -104 12 -49 12 -56 -4 -74 -17 -20 -77 -77 -120 -114 -16 -14 -19 -21 -10
-25 10 -4 11 -7 1 -18 -8 -7 -13 -41 -14 -79 -1 -36 -4 -90 -7 -120 l-7 -55
-65 -17 c-143 -39 -348 -40 -431 -2 l-39 17 0 83 c0 137 30 524 46 593 8 35
30 100 49 144 19 44 35 83 35 86 -1 3 -12 -7 -26 -24 l-24 -30 -20 25 c-32 39
-127 184 -157 238 l-28 50 20 22 c19 22 129 80 150 80 6 0 16 -9 22 -20z m327
-112 c4 -40 13 -83 22 -96 34 -52 116 -77 167 -51 12 7 41 27 64 45 55 45 72
43 38 -3 -34 -46 -59 -68 -107 -93 -50 -27 -76 -25 -90 5 -11 25 -48 42 -67
31 -33 -21 -71 40 -71 116 0 60 17 131 29 124 4 -3 11 -38 15 -78z m40 73 c8
-12 165 -87 214 -102 23 -7 40 -14 38 -17 -11 -11 -155 46 -215 85 -36 23 -61
43 -54 43 6 0 14 -4 17 -9z m32 -53 c26 -17 83 -44 128 -59 59 -19 74 -28 60
-33 -45 -14 -244 78 -244 113 0 16 4 15 56 -21z m62 -156 c-30 -4 -92 29 -101
52 -4 9 18 3 61 -17 60 -28 65 -32 40 -35z m435 -764 c2 -24 10 -58 18 -76 12
-29 10 -51 -14 -200 l-28 -167 22 -49 c17 -38 20 -61 16 -102 -6 -57 -40 -146
-55 -142 -5 2 -19 -8 -31 -22 l-21 -25 15 37 c16 40 21 130 5 93 -5 -11 -9
-32 -9 -47 -1 -31 -30 -98 -43 -98 -10 0 -10 7 1 50 15 60 20 110 10 110 -5 0
-9 -12 -9 -26 0 -42 -21 -113 -38 -126 -14 -11 -15 -9 -9 21 4 19 10 64 13
100 9 103 -15 122 -88 69 -9 -7 -20 -9 -24 -6 -12 13 81 110 130 135 l49 25
-6 86 c-4 48 -11 103 -17 122 -15 51 -12 145 5 187 19 44 19 45 -1 41 -10 -2
-19 3 -21 10 -3 6 3 12 14 13 10 0 34 6 53 13 54 21 58 19 63 -26z m-548 -428
c-3 -5 -18 -10 -33 -10 -21 0 -24 2 -12 10 20 13 53 13 45 0z m-141 -165 c20
-166 37 -425 35 -526 -1 -67 -5 -83 -25 -104 -13 -14 -29 -25 -36 -25 -23 0
-36 79 -37 230 -1 80 -4 191 -7 247 -6 83 -2 123 17 223 15 79 26 115 30 103
4 -10 14 -76 23 -148z m-218 113 c-3 -13 -6 -29 -6 -35 0 -7 -9 -13 -20 -13
-16 0 -20 7 -20 35 0 31 3 35 26 35 22 0 25 -3 20 -22z m274 -113 c0 -8 5 -15
10 -15 6 0 10 -4 10 -9 0 -4 -11 -6 -25 -3 -27 5 -36 42 -10 42 8 0 15 -7 15
-15z m-222 -107 c-12 -36 -108 -47 -108 -14 0 15 23 22 78 25 23 1 32 -3 30
-11z m312 -60 c0 -20 -6 -23 -49 -26 -41 -2 -49 1 -54 17 -5 21 1 23 71 29 27
2 32 -1 32 -20z"/>
<path d="M2153 3123 c-3 -10 -8 -21 -10 -25 -2 -5 -1 -8 4 -8 4 0 13 11 20 25
6 14 7 25 2 25 -5 0 -12 -8 -16 -17z"/>
<path d="M2156 2995 c-18 -14 -16 -15 28 -15 54 0 78 -10 123 -52 30 -29 53
-31 53 -4 0 14 -45 59 -77 75 -31 16 -104 13 -127 -4z"/>
<path d="M2480 2864 c-12 -13 -11 -17 1 -25 8 -5 24 -9 37 -9 38 0 86 -25 115
-59 27 -32 27 -32 27 -8 0 49 -57 98 -131 111 -27 5 -40 2 -49 -10z"/>
<path d="M2211 2568 c27 -27 47 -37 85 -42 46 -6 48 -6 24 8 -14 8 -37 12 -52
9 -21 -4 -28 -2 -28 10 0 9 -15 24 -32 33 l-33 17 36 -35z"/>
<path d="M2545 2780 c27 -12 43 -12 25 0 -8 5 -22 9 -30 9 -10 0 -8 -3 5 -9z"/>
<path d="M2692 2540 c0 -14 2 -19 5 -12 2 6 2 18 0 25 -3 6 -5 1 -5 -13z"/>
<path d="M2627 963 c-8 -12 -20 -103 -14 -103 7 0 29 102 23 107 -2 2 -6 1 -9
-4z"/>
</g>
</svg>
